<svg width="113" height="33" viewBox="0 0 113 33" fill="none" xmlns="http://www.w3.org/2000/svg">
<path fill-rule="evenodd" clip-rule="evenodd" d="M14.181 26.7524V32.2933H0L24.9746 7.13159L50.4118 32.2933H41.786L25.2059 15.7671L14.181 26.7524Z" fill="#48668E"/>
<path fill-rule="evenodd" clip-rule="evenodd" d="M24.9746 7.13159L50.4119 32.2933H41.786L25.206 15.7671L24.9746 7.13159Z" fill="#C2CFE0"/>
<path fill-rule="evenodd" clip-rule="evenodd" d="M98.819 26.7524V32.2933H113L88.0254 7.13159L62.5882 32.2933H71.214L87.7941 15.7671L98.819 26.7524Z" fill="#48668E"/>
<path fill-rule="evenodd" clip-rule="evenodd" d="M98.819 26.7524V32.2933H113L88.0254 7.13159L87.7941 15.7671L98.819 26.7524Z" fill="#C2CFE0"/>
<path fill-rule="evenodd" clip-rule="evenodd" d="M24.2012 32.2632L56.2747 0L88.6659 32.2632H70.2793V24.7343L56.2747 10.9069L42.4646 24.7343V32.2632H24.2012Z" fill="#0376CE"/>
<path fill-rule="evenodd" clip-rule="evenodd" d="M56.2734 0L88.6647 32.2632H70.2781V24.7343L56.2734 10.9069L56.2734 0Z" fill="#3DA9FC"/>
</svg>
